name analog
datacolumns 19
datarows 32
range 0.0 0.0155
endheader
time	ground_force_vx	ground_force_vy	ground_force_vz	ground_force_px	ground_force_py	ground_force_pz	l_ground_force_vx	l_ground_force_vy	l_ground_force_vz	l_ground_force_px	l_ground_force_py	l_ground_force_pz	ground_torque_x	ground_torque_y	ground_torque_z	l_ground_torque_x	l_ground_torque_y	l_ground_torque_z
0.0	-0.0	-0.0	-0.0	1.5663752555847168	24.79660987854004	-470.2901916503906	-2.0246236324310303	-26.779638290405277	-146.7972412109375	-0.0	-0.0	-0.0	-0.0	-0.0	-0.0	34488.90234375	866.4002075195312	-589.3197631835938
0.0005	-0.0	-0.0	-0.0	1.4119887351989746	25.260786056518555	-470.1555786132813	-2.0586769580841064	-26.8680419921875	-147.83541870117188	-0.0	-0.0	-0.0	-0.0	-0.0	-0.0	34599.40625	772.2588500976562	-690.5614624023438
0.001	-0.0	-0.0	-0.0	1.5839109420776367	25.435800552368164	-470.1558227539063	-2.073902130126953	-26.80128288269043	-147.69113159179688	-0.0	-0.0	-0.0	-0.0	-0.0	-0.0	34636.66015625	574.7863159179688	-613.8591918945312
0.0015	-0.0	-0.0	-0.0	1.55375075340271	25.26104164123535	-468.25775146484375	-2.095716953277588	-26.904918670654297	-148.11293029785156	-0.0	-0.0	-0.0	-0.0	-0.0	-0.0	34337.57421875	680.3168334960938	-612.7542724609375
0.002	-0.0	-0.0	-0.0	1.230278253555298	24.960641860961918	-469.7456970214844	-2.077425479888916	-27.133214950561523	-149.16070556640625	-0.0	-0.0	-0.0	-0.0	-0.0	-0.0	34719.453125	945.8004150390624	-578.1852416992188
0.0025	-0.0	-0.0	-0.0	1.5826447010040283	25.116064071655277	-468.9488220214844	-2.114729404449463	-26.95662879943848	-147.69113159179688	-0.0	-0.0	-0.0	-0.0	-0.0	-0.0	34590.36328125	584.8601684570312	-617.4331665039062
0.003	-0.0	-0.0	-0.0	1.4273681640625	25.13477325439453	-469.0783081054688	-1.937637209892273	-27.39366149902344	-148.1873016357422	-0.0	-0.0	-0.0	-0.0	-0.0	-0.0	34562.703125	708.1637573242188	-637.5264892578125
0.0035	-0.0	-0.0	-0.0	1.5354585647583008	25.088552474975582	-469.2266845703125	-2.059096574783325	-27.165746688842773	-149.7662353515625	-0.0	-0.0	-0.0	-0.0	-0.0	-0.0	34683.2578125	600.9588623046875	-678.0988159179688
0.004	-0.0	-0.0	-0.0	0.967850923538208	24.637828826904297	-469.2478637695313	-2.09144926071167	-27.393156051635746	-149.86004638671875	-0.0	-0.0	-0.0	-0.0	-0.0	-0.0	34667.91015625	574.641845703125	-667.3422241210938
0.0045000000000000005	-0.0	-0.0	-0.0	1.5165786743164062	25.11577033996582	-468.9996643066406	-2.1611082553863525	-27.12786293029785	-147.8397979736328	-0.0	-0.0	-0.0	-0.0	-0.0	-0.0	34655.94140625	420.5846862792969	-642.0892944335938
0.005	-0.0	-0.0	-0.0	1.3252513408660889	25.2048454284668	-468.2655334472656	-2.185889482498169	-27.272541046142575	-149.01318359375	-0.0	-0.0	-0.0	-0.0	-0.0	-0.0	34802.09375	718.9677124023438	-538.108642578125
0.0055	-0.0	-0.0	-0.0	1.586642146110535	25.12216186523437	-469.2503662109375	-2.357162952423096	-27.10842514038086	-149.16258239746094	-0.0	-0.0	-0.0	-0.0	-0.0	-0.0	34552.35546875	859.0682373046875	-555.23095703125
0.006	-0.0	-0.0	-0.0	1.242008090019226	24.60692405700684	-470.6852416992188	-2.2177696228027344	-26.93811416625977	-147.71778869628906	-0.0	-0.0	-0.0	-0.0	-0.0	-0.0	34692.59765625	845.642578125	-644.1358032226562
0.006500000000000001	-0.0	-0.0	-0.0	0.9379010200500488	24.99505043029785	-471.54296875	-2.1865177154541016	-27.34158515930176	-149.4091339111328	-0.0	-0.0	-0.0	-0.0	-0.0	-0.0	34546.4375	772.4429321289062	-625.0400390625
0.007	-0.0	-0.0	-0.0	0.9502135515213012	25.154125213623047	-470.9119873046875	-2.3257157802581787	-26.95726585388184	-147.5397186279297	-0.0	-0.0	-0.0	-0.0	-0.0	-0.0	34618.44140625	677.725341796875	-618.5818481445312
0.0075	-0.0	-0.0	-0.0	0.9000247716903687	25.25480842590332	-469.8375854492188	-2.267897367477417	-26.68086242675781	-149.0572509765625	-0.0	-0.0	-0.0	-0.0	-0.0	-0.0	34443.53515625	721.7864379882812	-671.31005859375
0.008	-0.0	-0.0	-0.0	1.6949996948242188	25.06512260437012	-470.8216247558594	-2.356466770172119	-26.77268409729004	-147.41818237304688	-0.0	-0.0	-0.0	-0.0	-0.0	-0.0	34484.59375	450.7733459472656	-588.807861328125
0.0085	-0.0	-0.0	-0.0	1.3076869249343872	25.154335021972656	-472.2446899414063	-2.0597927570343018	-27.00707626342773	-147.41851806640625	-0.0	-0.0	-0.0	-0.0	-0.0	-0.0	34400.61328125	686.954345703125	-571.94140625
0.009000000000000001	-0.0	-0.0	-0.0	1.4273681640625	24.94585609436035	-470.9088134765625	-2.19826889038086	-26.681903839111328	-146.83932495117188	-0.0	-0.0	-0.0	-0.0	-0.0	-0.0	34251.7734375	490.4425048828125	-624.7646484375
0.0095	-0.0	-0.0	-0.0	1.3381576538085938	25.205265045166016	-471.3392028808594	-2.011629581451416	-26.84979248046875	-146.1764678955078	-0.0	-0.0	-0.0	-0.0	-0.0	-0.0	34457.42578125	688.968994140625	-631.1953735351562
0.01	-0.0	-0.0	-0.0	1.4569004774093628	24.738399505615234	-470.6321716308594	-2.375537157058716	-27.036487579345703	-147.30435180664062	-0.0	-0.0	-0.0	-0.0	-0.0	-0.0	34579.08984375	545.9525756835938	-446.94525146484375
0.0105	-0.0	-0.0	-0.0	1.7246687412261963	25.16441535949707	-471.6523742675781	-1.9713475704193115	-27.04606056213379	-147.49725341796875	-0.0	-0.0	-0.0	-0.0	-0.0	-0.0	34242.2421875	691.1680908203125	-542.2244873046875
0.011	-0.0	-0.0	-0.0	1.298297643661499	24.728944778442383	-470.6310729980469	-1.8724666833877563	-26.918407440185547	-148.4673309326172	-0.0	-0.0	-0.0	-0.0	-0.0	-0.0	34441.1484375	696.6661376953125	-472.9849548339844
0.0115	-0.0	-0.0	-0.0	1.2397412061691284	25.22390365600586	-470.3929443359375	-2.040348052978516	-27.16352653503418	-147.69113159179688	-0.0	-0.0	-0.0	-0.0	-0.0	-0.0	34762.45703125	545.4894409179688	-548.9454956054688
0.012	-0.0	-0.0	-0.0	1.378273367881775	25.105762481689453	-470.51507568359375	-1.9407492876052856	-27.14358139038086	-149.32293701171875	-0.0	-0.0	-0.0	-0.0	-0.0	-0.0	34425.75	557.44482421875	-413.8901977539063
0.0125	-0.0	-0.0	-0.0	1.6949996948242188	24.81849670410156	-470.9370727539063	-1.8829286098480225	-27.154586791992188	-147.8485870361328	-0.0	-0.0	-0.0	-0.0	-0.0	-0.0	34681.27734375	451.2789916992188	-446.5084533691406
0.013000000000000001	-0.0	-0.0	-0.0	1.6057891845703125	24.79843139648437	-469.8559265136719	-1.943159818649292	-27.31137084960937	-149.66151428222656	-0.0	-0.0	-0.0	-0.0	-0.0	-0.0	34853.12109375	409.0965270996094	-604.4346313476562
0.0135	-0.0	-0.0	-0.0	1.682869553565979	24.70124053955078	-470.1627502441406	-1.6452471017837524	-27.57640647888184	-149.94448852539062	-0.0	-0.0	-0.0	-0.0	-0.0	-0.0	34778.2109375	380.7153015136719	-473.3278503417969
0.014	-0.0	-0.0	-0.0	1.435174822807312	25.09410858154297	-470.5162353515625	-1.6450823545455933	-27.447921752929688	-150.5153045654297	-0.0	-0.0	-0.0	-0.0	-0.0	-0.0	34927.52734375	322.8052673339844	-489.52484130859375
0.0145	-0.0	-0.0	-0.0	1.3177499771118164	25.195941925048828	-469.3761596679688	-1.8552862405776975	-27.50840187072754	-150.53404235839844	-0.0	-0.0	-0.0	-0.0	-0.0	-0.0	34996.98828125	432.6150512695313	-430.3804626464844
0.015	-0.0	-0.0	-0.0	1.3381576538085938	24.54456329345703	-469.1327819824219	-1.842576503753662	-27.53610610961914	-149.97500610351562	-0.0	-0.0	-0.0	-0.0	-0.0	-0.0	34947.3671875	446.4123840332031	-505.7883911132813
0.0155	-0.0	-0.0	-0.0	1.4754846096038818	24.826324462890625	-468.7233276367188	-2.019941806793213	-27.64468765258789	-150.1876220703125	-0.0	-0.0	-0.0	-0.0	-0.0	-0.0	34638.75390625	275.4867248535156	-455.7883605957031
